<mxfile host="Electron" agent="Mozilla/5.0 (Windows NT 10.0; Win64; x64) AppleWebKit/537.36 (KHTML, like Gecko) draw.io/26.0.9 Chrome/128.0.6613.186 Electron/32.2.5 Safari/537.36" version="26.0.9" pages="2">
  <diagram name="Page-1" id="NyhAUpcFPxozT7kHwrIq">
    <mxGraphModel dx="1472" dy="2233" grid="1" gridSize="7" guides="1" tooltips="1" connect="1" arrows="1" fold="1" page="1" pageScale="1" pageWidth="850" pageHeight="1500" math="0" shadow="0">
      <root>
        <mxCell id="0" />
        <mxCell id="1" parent="0" />
        <mxCell id="NJ17CVqjvDGpQ6WvzWn6-5" style="edgeStyle=orthogonalEdgeStyle;rounded=0;orthogonalLoop=1;jettySize=auto;html=1;exitX=1;exitY=0.5;exitDx=0;exitDy=0;exitPerimeter=0;entryX=0;entryY=0.5;entryDx=0;entryDy=0;" edge="1" parent="1" source="NJ17CVqjvDGpQ6WvzWn6-1" target="NJ17CVqjvDGpQ6WvzWn6-4">
          <mxGeometry relative="1" as="geometry" />
        </mxCell>
        <mxCell id="NJ17CVqjvDGpQ6WvzWn6-1" value="Oracle/MYSQL" style="shape=cylinder3;whiteSpace=wrap;html=1;boundedLbl=1;backgroundOutline=1;size=15;" vertex="1" parent="1">
          <mxGeometry x="60" y="140" width="80" height="100" as="geometry" />
        </mxCell>
        <mxCell id="NJ17CVqjvDGpQ6WvzWn6-6" style="edgeStyle=orthogonalEdgeStyle;rounded=0;orthogonalLoop=1;jettySize=auto;html=1;exitX=1;exitY=0.5;exitDx=0;exitDy=0;" edge="1" parent="1" source="NJ17CVqjvDGpQ6WvzWn6-4" target="NJ17CVqjvDGpQ6WvzWn6-10">
          <mxGeometry relative="1" as="geometry">
            <mxPoint x="390" y="190" as="targetPoint" />
          </mxGeometry>
        </mxCell>
        <mxCell id="NJ17CVqjvDGpQ6WvzWn6-4" value="Informatica powercenter" style="rounded=0;whiteSpace=wrap;html=1;" vertex="1" parent="1">
          <mxGeometry x="220" y="160" width="120" height="60" as="geometry" />
        </mxCell>
        <mxCell id="NJ17CVqjvDGpQ6WvzWn6-7" value="" style="sketch=0;points=[[0,0,0],[0.25,0,0],[0.5,0,0],[0.75,0,0],[1,0,0],[0,1,0],[0.25,1,0],[0.5,1,0],[0.75,1,0],[1,1,0],[0,0.25,0],[0,0.5,0],[0,0.75,0],[1,0.25,0],[1,0.5,0],[1,0.75,0]];outlineConnect=0;fontColor=#232F3E;fillColor=#7AA116;strokeColor=#ffffff;dashed=0;verticalLabelPosition=bottom;verticalAlign=top;align=center;html=1;fontSize=12;fontStyle=0;aspect=fixed;shape=mxgraph.aws4.resourceIcon;resIcon=mxgraph.aws4.fsx_for_windows_file_server;" vertex="1" parent="1">
          <mxGeometry x="241" y="280" width="78" height="78" as="geometry" />
        </mxCell>
        <mxCell id="NJ17CVqjvDGpQ6WvzWn6-9" value="" style="endArrow=classic;startArrow=classic;html=1;rounded=0;entryX=0.5;entryY=1;entryDx=0;entryDy=0;" edge="1" parent="1" source="NJ17CVqjvDGpQ6WvzWn6-7" target="NJ17CVqjvDGpQ6WvzWn6-4">
          <mxGeometry width="50" height="50" relative="1" as="geometry">
            <mxPoint x="430" y="290" as="sourcePoint" />
            <mxPoint x="480" y="240" as="targetPoint" />
          </mxGeometry>
        </mxCell>
        <mxCell id="NJ17CVqjvDGpQ6WvzWn6-14" value="" style="edgeStyle=orthogonalEdgeStyle;rounded=0;orthogonalLoop=1;jettySize=auto;html=1;" edge="1" parent="1" source="NJ17CVqjvDGpQ6WvzWn6-10" target="NJ17CVqjvDGpQ6WvzWn6-13">
          <mxGeometry relative="1" as="geometry" />
        </mxCell>
        <mxCell id="NJ17CVqjvDGpQ6WvzWn6-10" value="Amazon S3 Landing" style="sketch=0;outlineConnect=0;fontColor=#232F3E;gradientColor=none;strokeColor=#ffffff;fillColor=#232F3E;dashed=0;verticalLabelPosition=middle;verticalAlign=bottom;align=center;html=1;whiteSpace=wrap;fontSize=10;fontStyle=1;spacing=3;shape=mxgraph.aws4.productIcon;prIcon=mxgraph.aws4.s3;" vertex="1" parent="1">
          <mxGeometry x="380" y="128.5" width="90" height="124" as="geometry" />
        </mxCell>
        <mxCell id="NJ17CVqjvDGpQ6WvzWn6-16" value="" style="edgeStyle=orthogonalEdgeStyle;rounded=0;orthogonalLoop=1;jettySize=auto;html=1;" edge="1" parent="1" source="NJ17CVqjvDGpQ6WvzWn6-13" target="NJ17CVqjvDGpQ6WvzWn6-15">
          <mxGeometry relative="1" as="geometry" />
        </mxCell>
        <mxCell id="NJ17CVqjvDGpQ6WvzWn6-13" value="AWS Lambda to store info in Mongo DB&amp;nbsp;" style="sketch=0;outlineConnect=0;fontColor=#232F3E;gradientColor=none;strokeColor=#ffffff;fillColor=#232F3E;dashed=0;verticalLabelPosition=middle;verticalAlign=bottom;align=center;html=1;whiteSpace=wrap;fontSize=10;fontStyle=1;spacing=3;shape=mxgraph.aws4.productIcon;prIcon=mxgraph.aws4.lambda;" vertex="1" parent="1">
          <mxGeometry x="541.2" y="128.5" width="80" height="125" as="geometry" />
        </mxCell>
        <mxCell id="NJ17CVqjvDGpQ6WvzWn6-15" value="" style="dashed=0;outlineConnect=0;html=1;align=center;labelPosition=center;verticalLabelPosition=bottom;verticalAlign=top;shape=mxgraph.webicons.mongodb;gradientColor=#DFDEDE" vertex="1" parent="1">
          <mxGeometry x="541" y="281" width="79.4" height="77" as="geometry" />
        </mxCell>
        <mxCell id="NJ17CVqjvDGpQ6WvzWn6-17" value="S3-trigger" style="text;html=1;align=center;verticalAlign=middle;resizable=0;points=[];autosize=1;strokeColor=none;fillColor=none;" vertex="1" parent="1">
          <mxGeometry x="470" y="154" width="70" height="35" as="geometry" />
        </mxCell>
        <mxCell id="NJ17CVqjvDGpQ6WvzWn6-18" value="MongoDB for Audit and sequential processing" style="text;html=1;align=center;verticalAlign=middle;resizable=0;points=[];autosize=1;strokeColor=none;fillColor=none;" vertex="1" parent="1">
          <mxGeometry x="462" y="364" width="266" height="35" as="geometry" />
        </mxCell>
        <mxCell id="NJ17CVqjvDGpQ6WvzWn6-19" value="Shared File Server" style="text;html=1;align=center;verticalAlign=middle;resizable=0;points=[];autosize=1;strokeColor=none;fillColor=none;" vertex="1" parent="1">
          <mxGeometry x="221" y="358" width="119" height="35" as="geometry" />
        </mxCell>
        <mxCell id="G-ltFNJWFvAJmX5KEzf5-19" value="" style="edgeStyle=orthogonalEdgeStyle;rounded=0;orthogonalLoop=1;jettySize=auto;html=1;" edge="1" parent="1" source="G-ltFNJWFvAJmX5KEzf5-4">
          <mxGeometry relative="1" as="geometry">
            <mxPoint x="952" y="207.5" as="targetPoint" />
          </mxGeometry>
        </mxCell>
        <mxCell id="G-ltFNJWFvAJmX5KEzf5-4" value="AWS Lambda Schedule to trigger in every 5 minutes to check the pending feeds&amp;nbsp;" style="sketch=0;outlineConnect=0;fontColor=#232F3E;gradientColor=none;strokeColor=#ffffff;fillColor=#232F3E;dashed=0;verticalLabelPosition=middle;verticalAlign=bottom;align=center;html=1;whiteSpace=wrap;fontSize=10;fontStyle=1;spacing=3;shape=mxgraph.aws4.productIcon;prIcon=mxgraph.aws4.lambda;" vertex="1" parent="1">
          <mxGeometry x="686" y="128.5" width="80" height="158" as="geometry" />
        </mxCell>
        <mxCell id="G-ltFNJWFvAJmX5KEzf5-5" value="" style="endArrow=classic;html=1;rounded=0;" edge="1" parent="1">
          <mxGeometry width="50" height="50" relative="1" as="geometry">
            <mxPoint x="623" y="330" as="sourcePoint" />
            <mxPoint x="735" y="294" as="targetPoint" />
            <Array as="points">
              <mxPoint x="735" y="329" />
            </Array>
          </mxGeometry>
        </mxCell>
        <mxCell id="G-ltFNJWFvAJmX5KEzf5-6" value="AWS Step Functions workflow" style="points=[[0,0],[0.25,0],[0.5,0],[0.75,0],[1,0],[1,0.25],[1,0.5],[1,0.75],[1,1],[0.75,1],[0.5,1],[0.25,1],[0,1],[0,0.75],[0,0.5],[0,0.25]];outlineConnect=0;gradientColor=none;html=1;whiteSpace=wrap;fontSize=12;fontStyle=0;container=1;pointerEvents=0;collapsible=0;recursiveResize=0;shape=mxgraph.aws4.group;grIcon=mxgraph.aws4.group_aws_step_functions_workflow;strokeColor=#CD2264;fillColor=none;verticalAlign=top;align=left;spacingLeft=30;fontColor=#CD2264;dashed=0;" vertex="1" parent="1">
          <mxGeometry x="952" y="-77" width="618.2" height="1757" as="geometry" />
        </mxCell>
        <mxCell id="G-ltFNJWFvAJmX5KEzf5-30" value="" style="edgeStyle=orthogonalEdgeStyle;rounded=0;orthogonalLoop=1;jettySize=auto;html=1;" edge="1" parent="G-ltFNJWFvAJmX5KEzf5-6" source="G-ltFNJWFvAJmX5KEzf5-24" target="G-ltFNJWFvAJmX5KEzf5-29">
          <mxGeometry relative="1" as="geometry" />
        </mxCell>
        <mxCell id="G-ltFNJWFvAJmX5KEzf5-24" value="AWS Lambda Data File Validator" style="sketch=0;outlineConnect=0;fontColor=#232F3E;gradientColor=none;strokeColor=#ffffff;fillColor=#232F3E;dashed=0;verticalLabelPosition=middle;verticalAlign=bottom;align=center;html=1;whiteSpace=wrap;fontSize=10;fontStyle=1;spacing=3;shape=mxgraph.aws4.productIcon;prIcon=mxgraph.aws4.lambda;" vertex="1" parent="G-ltFNJWFvAJmX5KEzf5-6">
          <mxGeometry x="231" y="91" width="80" height="118.5" as="geometry" />
        </mxCell>
        <mxCell id="G-ltFNJWFvAJmX5KEzf5-36" value="" style="edgeStyle=orthogonalEdgeStyle;rounded=0;orthogonalLoop=1;jettySize=auto;html=1;" edge="1" parent="G-ltFNJWFvAJmX5KEzf5-6" source="G-ltFNJWFvAJmX5KEzf5-25" target="G-ltFNJWFvAJmX5KEzf5-35">
          <mxGeometry relative="1" as="geometry" />
        </mxCell>
        <mxCell id="G-ltFNJWFvAJmX5KEzf5-25" value="AWS Lambda to create command to submit step to EMR" style="sketch=0;outlineConnect=0;fontColor=#232F3E;gradientColor=none;strokeColor=#ffffff;fillColor=#232F3E;dashed=0;verticalLabelPosition=middle;verticalAlign=bottom;align=center;html=1;whiteSpace=wrap;fontSize=10;fontStyle=1;spacing=3;shape=mxgraph.aws4.productIcon;prIcon=mxgraph.aws4.lambda;" vertex="1" parent="G-ltFNJWFvAJmX5KEzf5-6">
          <mxGeometry x="231" y="434" width="80" height="147" as="geometry" />
        </mxCell>
        <mxCell id="G-ltFNJWFvAJmX5KEzf5-31" value="" style="edgeStyle=orthogonalEdgeStyle;rounded=0;orthogonalLoop=1;jettySize=auto;html=1;" edge="1" parent="G-ltFNJWFvAJmX5KEzf5-6" source="G-ltFNJWFvAJmX5KEzf5-29" target="G-ltFNJWFvAJmX5KEzf5-25">
          <mxGeometry relative="1" as="geometry" />
        </mxCell>
        <mxCell id="G-ltFNJWFvAJmX5KEzf5-33" value="" style="edgeStyle=orthogonalEdgeStyle;rounded=0;orthogonalLoop=1;jettySize=auto;html=1;" edge="1" parent="G-ltFNJWFvAJmX5KEzf5-6" source="G-ltFNJWFvAJmX5KEzf5-29" target="G-ltFNJWFvAJmX5KEzf5-32">
          <mxGeometry relative="1" as="geometry" />
        </mxCell>
        <mxCell id="G-ltFNJWFvAJmX5KEzf5-29" value="AWS Lambda to trigger EMR or get the emr id if there is already existing emr running" style="sketch=0;outlineConnect=0;fontColor=#232F3E;gradientColor=none;strokeColor=#ffffff;fillColor=#232F3E;dashed=0;verticalLabelPosition=middle;verticalAlign=bottom;align=center;html=1;whiteSpace=wrap;fontSize=10;fontStyle=1;spacing=3;shape=mxgraph.aws4.productIcon;prIcon=mxgraph.aws4.lambda;" vertex="1" parent="G-ltFNJWFvAJmX5KEzf5-6">
          <mxGeometry x="231" y="241" width="80" height="158" as="geometry" />
        </mxCell>
        <mxCell id="G-ltFNJWFvAJmX5KEzf5-32" value="" style="dashed=0;outlineConnect=0;html=1;align=center;labelPosition=center;verticalLabelPosition=bottom;verticalAlign=top;shape=mxgraph.webicons.mongodb;gradientColor=#DFDEDE" vertex="1" parent="G-ltFNJWFvAJmX5KEzf5-6">
          <mxGeometry x="420" y="281.5" width="71.4" height="77" as="geometry" />
        </mxCell>
        <mxCell id="G-ltFNJWFvAJmX5KEzf5-45" value="" style="edgeStyle=orthogonalEdgeStyle;rounded=0;orthogonalLoop=1;jettySize=auto;html=1;" edge="1" parent="G-ltFNJWFvAJmX5KEzf5-6" source="G-ltFNJWFvAJmX5KEzf5-35" target="G-ltFNJWFvAJmX5KEzf5-41">
          <mxGeometry relative="1" as="geometry" />
        </mxCell>
        <mxCell id="G-ltFNJWFvAJmX5KEzf5-70" value="" style="edgeStyle=orthogonalEdgeStyle;rounded=0;orthogonalLoop=1;jettySize=auto;html=1;" edge="1" parent="G-ltFNJWFvAJmX5KEzf5-6" source="G-ltFNJWFvAJmX5KEzf5-35" target="G-ltFNJWFvAJmX5KEzf5-53">
          <mxGeometry relative="1" as="geometry" />
        </mxCell>
        <mxCell id="G-ltFNJWFvAJmX5KEzf5-77" value="" style="edgeStyle=orthogonalEdgeStyle;rounded=0;orthogonalLoop=1;jettySize=auto;html=1;" edge="1" parent="G-ltFNJWFvAJmX5KEzf5-6" source="G-ltFNJWFvAJmX5KEzf5-35" target="G-ltFNJWFvAJmX5KEzf5-38">
          <mxGeometry relative="1" as="geometry" />
        </mxCell>
        <mxCell id="G-ltFNJWFvAJmX5KEzf5-35" value="Amazon EMR to apply DQ rules and schema application on data and covert the data into orc and save data into hive External tables" style="sketch=0;outlineConnect=0;fontColor=#232F3E;gradientColor=none;strokeColor=#ffffff;fillColor=#232F3E;dashed=0;verticalLabelPosition=middle;verticalAlign=bottom;align=center;html=1;whiteSpace=wrap;fontSize=10;fontStyle=1;spacing=3;shape=mxgraph.aws4.productIcon;prIcon=mxgraph.aws4.emr;" vertex="1" parent="G-ltFNJWFvAJmX5KEzf5-6">
          <mxGeometry x="231" y="623" width="80" height="224" as="geometry" />
        </mxCell>
        <mxCell id="G-ltFNJWFvAJmX5KEzf5-38" value="" style="dashed=0;outlineConnect=0;html=1;align=center;labelPosition=center;verticalLabelPosition=bottom;verticalAlign=top;shape=mxgraph.webicons.mongodb;gradientColor=#DFDEDE" vertex="1" parent="G-ltFNJWFvAJmX5KEzf5-6">
          <mxGeometry x="413" y="683.8" width="102.4" height="102.4" as="geometry" />
        </mxCell>
        <mxCell id="G-ltFNJWFvAJmX5KEzf5-40" value="To fetch&lt;div&gt;&amp;nbsp;Schema&lt;div&gt;&amp;nbsp;Information&lt;div&gt;&amp;nbsp;for particular feed&lt;/div&gt;&lt;/div&gt;&lt;/div&gt;" style="text;html=1;align=center;verticalAlign=middle;resizable=0;points=[];autosize=1;strokeColor=none;fillColor=none;" vertex="1" parent="G-ltFNJWFvAJmX5KEzf5-6">
          <mxGeometry x="301" y="588" width="119" height="77" as="geometry" />
        </mxCell>
        <mxCell id="G-ltFNJWFvAJmX5KEzf5-57" value="" style="edgeStyle=orthogonalEdgeStyle;rounded=0;orthogonalLoop=1;jettySize=auto;html=1;" edge="1" parent="G-ltFNJWFvAJmX5KEzf5-6" source="G-ltFNJWFvAJmX5KEzf5-41" target="G-ltFNJWFvAJmX5KEzf5-46">
          <mxGeometry relative="1" as="geometry" />
        </mxCell>
        <mxCell id="G-ltFNJWFvAJmX5KEzf5-41" value="AWS Lambda to create emr submit step arguments for raw to process layer emr step" style="sketch=0;outlineConnect=0;fontColor=#232F3E;gradientColor=none;strokeColor=#ffffff;fillColor=#232F3E;dashed=0;verticalLabelPosition=middle;verticalAlign=bottom;align=center;html=1;whiteSpace=wrap;fontSize=10;fontStyle=1;spacing=3;shape=mxgraph.aws4.productIcon;prIcon=mxgraph.aws4.lambda;" vertex="1" parent="G-ltFNJWFvAJmX5KEzf5-6">
          <mxGeometry x="229" y="889" width="84" height="161" as="geometry" />
        </mxCell>
        <mxCell id="G-ltFNJWFvAJmX5KEzf5-34" value="EMR Config&lt;div&gt;&amp;nbsp;For Specific&lt;div&gt;&amp;nbsp;SOR&lt;/div&gt;&lt;/div&gt;" style="text;html=1;align=center;verticalAlign=middle;resizable=0;points=[];autosize=1;strokeColor=none;fillColor=none;" vertex="1" parent="G-ltFNJWFvAJmX5KEzf5-6">
          <mxGeometry x="314" y="234" width="84" height="63" as="geometry" />
        </mxCell>
        <mxCell id="G-ltFNJWFvAJmX5KEzf5-56" value="" style="edgeStyle=orthogonalEdgeStyle;rounded=0;orthogonalLoop=1;jettySize=auto;html=1;" edge="1" parent="G-ltFNJWFvAJmX5KEzf5-6" source="G-ltFNJWFvAJmX5KEzf5-46" target="G-ltFNJWFvAJmX5KEzf5-55">
          <mxGeometry relative="1" as="geometry" />
        </mxCell>
        <mxCell id="G-ltFNJWFvAJmX5KEzf5-61" value="" style="edgeStyle=orthogonalEdgeStyle;rounded=0;orthogonalLoop=1;jettySize=auto;html=1;" edge="1" parent="G-ltFNJWFvAJmX5KEzf5-6" source="G-ltFNJWFvAJmX5KEzf5-60" target="G-ltFNJWFvAJmX5KEzf5-46">
          <mxGeometry relative="1" as="geometry" />
        </mxCell>
        <mxCell id="G-ltFNJWFvAJmX5KEzf5-66" value="" style="edgeStyle=orthogonalEdgeStyle;rounded=0;orthogonalLoop=1;jettySize=auto;html=1;" edge="1" parent="G-ltFNJWFvAJmX5KEzf5-6" source="G-ltFNJWFvAJmX5KEzf5-46" target="G-ltFNJWFvAJmX5KEzf5-65">
          <mxGeometry relative="1" as="geometry" />
        </mxCell>
        <mxCell id="G-ltFNJWFvAJmX5KEzf5-46" value="&amp;nbsp;to read data from raw layer and based on the load type update data in process layer also encrypt the data for pi fields" style="sketch=0;outlineConnect=0;fontColor=#232F3E;gradientColor=none;strokeColor=#ffffff;fillColor=#232F3E;dashed=0;verticalLabelPosition=middle;verticalAlign=bottom;align=center;html=1;whiteSpace=wrap;fontSize=10;fontStyle=1;spacing=3;shape=mxgraph.aws4.productIcon;prIcon=mxgraph.aws4.emr;" vertex="1" parent="G-ltFNJWFvAJmX5KEzf5-6">
          <mxGeometry x="231" y="1099" width="80" height="196" as="geometry" />
        </mxCell>
        <mxCell id="G-ltFNJWFvAJmX5KEzf5-55" value="Amazon S3 Process layer" style="sketch=0;outlineConnect=0;fontColor=#232F3E;gradientColor=none;strokeColor=#ffffff;fillColor=#232F3E;dashed=0;verticalLabelPosition=middle;verticalAlign=bottom;align=center;html=1;whiteSpace=wrap;fontSize=10;fontStyle=1;spacing=3;shape=mxgraph.aws4.productIcon;prIcon=mxgraph.aws4.s3;" vertex="1" parent="G-ltFNJWFvAJmX5KEzf5-6">
          <mxGeometry x="49" y="1137.5" width="80" height="119" as="geometry" />
        </mxCell>
        <mxCell id="G-ltFNJWFvAJmX5KEzf5-63" value="" style="edgeStyle=orthogonalEdgeStyle;rounded=0;orthogonalLoop=1;jettySize=auto;html=1;" edge="1" parent="G-ltFNJWFvAJmX5KEzf5-6" source="G-ltFNJWFvAJmX5KEzf5-59" target="G-ltFNJWFvAJmX5KEzf5-62">
          <mxGeometry relative="1" as="geometry" />
        </mxCell>
        <mxCell id="G-ltFNJWFvAJmX5KEzf5-59" value="AWS Lambda to&amp;nbsp; update status in MongoDB failed/Successful and notify the user about the same" style="sketch=0;outlineConnect=0;fontColor=#232F3E;gradientColor=none;strokeColor=#ffffff;fillColor=#232F3E;dashed=0;verticalLabelPosition=middle;verticalAlign=bottom;align=center;html=1;whiteSpace=wrap;fontSize=10;fontStyle=1;spacing=3;shape=mxgraph.aws4.productIcon;prIcon=mxgraph.aws4.lambda;" vertex="1" parent="G-ltFNJWFvAJmX5KEzf5-6">
          <mxGeometry x="229" y="1554" width="80" height="175" as="geometry" />
        </mxCell>
        <mxCell id="G-ltFNJWFvAJmX5KEzf5-60" value="" style="dashed=0;outlineConnect=0;html=1;align=center;labelPosition=center;verticalLabelPosition=bottom;verticalAlign=top;shape=mxgraph.webicons.mongodb;gradientColor=#DFDEDE" vertex="1" parent="G-ltFNJWFvAJmX5KEzf5-6">
          <mxGeometry x="427" y="1145.8" width="102.4" height="102.4" as="geometry" />
        </mxCell>
        <mxCell id="G-ltFNJWFvAJmX5KEzf5-62" value="" style="dashed=0;outlineConnect=0;html=1;align=center;labelPosition=center;verticalLabelPosition=bottom;verticalAlign=top;shape=mxgraph.webicons.mongodb;gradientColor=#DFDEDE" vertex="1" parent="G-ltFNJWFvAJmX5KEzf5-6">
          <mxGeometry x="441" y="1590.3" width="102.4" height="102.4" as="geometry" />
        </mxCell>
        <mxCell id="G-ltFNJWFvAJmX5KEzf5-64" value="" style="dashed=0;outlineConnect=0;html=1;align=center;labelPosition=center;verticalLabelPosition=bottom;verticalAlign=top;shape=mxgraph.webicons.mongodb;gradientColor=#DFDEDE" vertex="1" parent="G-ltFNJWFvAJmX5KEzf5-6">
          <mxGeometry x="434" y="1352.3" width="102.4" height="102.4" as="geometry" />
        </mxCell>
        <mxCell id="G-ltFNJWFvAJmX5KEzf5-67" value="" style="edgeStyle=orthogonalEdgeStyle;rounded=0;orthogonalLoop=1;jettySize=auto;html=1;" edge="1" parent="G-ltFNJWFvAJmX5KEzf5-6" source="G-ltFNJWFvAJmX5KEzf5-64" target="G-ltFNJWFvAJmX5KEzf5-65">
          <mxGeometry relative="1" as="geometry" />
        </mxCell>
        <mxCell id="G-ltFNJWFvAJmX5KEzf5-71" value="" style="edgeStyle=orthogonalEdgeStyle;rounded=0;orthogonalLoop=1;jettySize=auto;html=1;" edge="1" parent="G-ltFNJWFvAJmX5KEzf5-6" source="G-ltFNJWFvAJmX5KEzf5-65" target="G-ltFNJWFvAJmX5KEzf5-59">
          <mxGeometry relative="1" as="geometry" />
        </mxCell>
        <mxCell id="G-ltFNJWFvAJmX5KEzf5-65" value="AWS Lambda to check if there and pending feeds for same SOR or if PIP is availaable" style="sketch=0;outlineConnect=0;fontColor=#232F3E;gradientColor=none;strokeColor=#ffffff;fillColor=#232F3E;dashed=0;verticalLabelPosition=middle;verticalAlign=bottom;align=center;html=1;whiteSpace=wrap;fontSize=10;fontStyle=1;spacing=3;shape=mxgraph.aws4.productIcon;prIcon=mxgraph.aws4.lambda;" vertex="1" parent="G-ltFNJWFvAJmX5KEzf5-6">
          <mxGeometry x="229" y="1323" width="80" height="161" as="geometry" />
        </mxCell>
        <mxCell id="G-ltFNJWFvAJmX5KEzf5-53" value="Amazon S3 raw layer" style="sketch=0;outlineConnect=0;fontColor=#232F3E;gradientColor=none;strokeColor=#ffffff;fillColor=#232F3E;dashed=0;verticalLabelPosition=middle;verticalAlign=bottom;align=center;html=1;whiteSpace=wrap;fontSize=10;fontStyle=1;spacing=3;shape=mxgraph.aws4.productIcon;prIcon=mxgraph.aws4.s3;" vertex="1" parent="G-ltFNJWFvAJmX5KEzf5-6">
          <mxGeometry x="49" y="680" width="84" height="110" as="geometry" />
        </mxCell>
        <mxCell id="G-ltFNJWFvAJmX5KEzf5-78" value="Mongo DB Collection&lt;div&gt;&amp;nbsp;with EMR Config&lt;/div&gt;" style="text;html=1;align=center;verticalAlign=middle;resizable=0;points=[];autosize=1;strokeColor=none;fillColor=none;" vertex="1" parent="G-ltFNJWFvAJmX5KEzf5-6">
          <mxGeometry x="396.4000000000001" y="358.5" width="133" height="49" as="geometry" />
        </mxCell>
        <mxCell id="G-ltFNJWFvAJmX5KEzf5-80" value="MongoDB collection&lt;div&gt;&amp;nbsp;Attributes details&lt;/div&gt;" style="text;html=1;align=center;verticalAlign=middle;resizable=0;points=[];autosize=1;strokeColor=none;fillColor=none;" vertex="1" parent="G-ltFNJWFvAJmX5KEzf5-6">
          <mxGeometry x="410.4000000000001" y="1260" width="126" height="49" as="geometry" />
        </mxCell>
        <mxCell id="G-ltFNJWFvAJmX5KEzf5-82" value="MongoDB for Details with PIP Config" style="text;html=1;align=center;verticalAlign=middle;resizable=0;points=[];autosize=1;strokeColor=none;fillColor=none;" vertex="1" parent="G-ltFNJWFvAJmX5KEzf5-6">
          <mxGeometry x="384.2" y="1477" width="217" height="35" as="geometry" />
        </mxCell>
        <mxCell id="G-ltFNJWFvAJmX5KEzf5-84" value="MongoDB for Audit and&lt;div&gt;&amp;nbsp;sequential processing&lt;/div&gt;" style="text;html=1;align=center;verticalAlign=middle;resizable=0;points=[];autosize=1;strokeColor=none;fillColor=none;" vertex="1" parent="G-ltFNJWFvAJmX5KEzf5-6">
          <mxGeometry x="412.20000000000005" y="1694" width="147" height="49" as="geometry" />
        </mxCell>
        <mxCell id="G-ltFNJWFvAJmX5KEzf5-12" value="" style="edgeStyle=orthogonalEdgeStyle;rounded=0;orthogonalLoop=1;jettySize=auto;html=1;" edge="1" parent="1" source="G-ltFNJWFvAJmX5KEzf5-7" target="G-ltFNJWFvAJmX5KEzf5-4">
          <mxGeometry relative="1" as="geometry" />
        </mxCell>
        <mxCell id="G-ltFNJWFvAJmX5KEzf5-7" value="" style="dashed=0;outlineConnect=0;html=1;align=center;labelPosition=center;verticalLabelPosition=bottom;verticalAlign=top;shape=mxgraph.webicons.mongodb;gradientColor=#DFDEDE" vertex="1" parent="1">
          <mxGeometry x="674.8" y="-28" width="102.4" height="91" as="geometry" />
        </mxCell>
        <mxCell id="G-ltFNJWFvAJmX5KEzf5-8" value="MongoDB For Metadata Information" style="text;html=1;align=center;verticalAlign=middle;resizable=0;points=[];autosize=1;strokeColor=none;fillColor=none;" vertex="1" parent="1">
          <mxGeometry x="455" width="210" height="35" as="geometry" />
        </mxCell>
        <mxCell id="G-ltFNJWFvAJmX5KEzf5-22" value="Trigger Step Function&lt;div&gt;&amp;nbsp;For Each Feed&amp;nbsp;&lt;/div&gt;" style="text;html=1;align=center;verticalAlign=middle;resizable=0;points=[];autosize=1;strokeColor=none;fillColor=none;" vertex="1" parent="1">
          <mxGeometry x="780" y="157" width="133" height="49" as="geometry" />
        </mxCell>
        <mxCell id="G-ltFNJWFvAJmX5KEzf5-73" value="" style="edgeStyle=orthogonalEdgeStyle;rounded=0;orthogonalLoop=1;jettySize=auto;html=1;entryX=0.522;entryY=-0.02;entryDx=0;entryDy=0;entryPerimeter=0;" edge="1" parent="1" source="G-ltFNJWFvAJmX5KEzf5-72" target="NJ17CVqjvDGpQ6WvzWn6-10">
          <mxGeometry relative="1" as="geometry" />
        </mxCell>
        <mxCell id="G-ltFNJWFvAJmX5KEzf5-72" value="Source" style="rounded=0;whiteSpace=wrap;html=1;" vertex="1" parent="1">
          <mxGeometry x="220" y="21" width="120" height="60" as="geometry" />
        </mxCell>
        <mxCell id="G-ltFNJWFvAJmX5KEzf5-76" value="" style="edgeStyle=orthogonalEdgeStyle;rounded=0;orthogonalLoop=1;jettySize=auto;html=1;entryX=0.833;entryY=0.036;entryDx=0;entryDy=0;entryPerimeter=0;" edge="1" parent="1" source="G-ltFNJWFvAJmX5KEzf5-74" target="NJ17CVqjvDGpQ6WvzWn6-10">
          <mxGeometry relative="1" as="geometry">
            <mxPoint x="440" y="-47" as="targetPoint" />
          </mxGeometry>
        </mxCell>
        <mxCell id="G-ltFNJWFvAJmX5KEzf5-74" value="Portal" style="rounded=0;whiteSpace=wrap;html=1;" vertex="1" parent="1">
          <mxGeometry x="220" y="-77" width="120" height="60" as="geometry" />
        </mxCell>
        <mxCell id="G-ltFNJWFvAJmX5KEzf5-79" value="MongoDB collection&lt;div&gt;&amp;nbsp;Attributes details&lt;/div&gt;" style="text;html=1;align=center;verticalAlign=middle;resizable=0;points=[];autosize=1;strokeColor=none;fillColor=none;" vertex="1" parent="1">
          <mxGeometry x="1343" y="703" width="126" height="49" as="geometry" />
        </mxCell>
        <mxCell id="G-ltFNJWFvAJmX5KEzf5-92" value="" style="edgeStyle=orthogonalEdgeStyle;rounded=0;orthogonalLoop=1;jettySize=auto;html=1;" edge="1" parent="1" source="G-ltFNJWFvAJmX5KEzf5-85">
          <mxGeometry relative="1" as="geometry">
            <mxPoint x="1261" y="2086" as="targetPoint" />
          </mxGeometry>
        </mxCell>
        <mxCell id="G-ltFNJWFvAJmX5KEzf5-85" value="AWS Lambda To the trigger the pip step function" style="sketch=0;outlineConnect=0;fontColor=#232F3E;gradientColor=none;strokeColor=#ffffff;fillColor=#232F3E;dashed=0;verticalLabelPosition=middle;verticalAlign=bottom;align=center;html=1;whiteSpace=wrap;fontSize=10;fontStyle=1;spacing=3;shape=mxgraph.aws4.productIcon;prIcon=mxgraph.aws4.lambda;" vertex="1" parent="1">
          <mxGeometry x="1221" y="1820" width="80" height="140" as="geometry" />
        </mxCell>
        <mxCell id="G-ltFNJWFvAJmX5KEzf5-89" value="" style="endArrow=classic;html=1;rounded=0;" edge="1" parent="1" source="G-ltFNJWFvAJmX5KEzf5-6" target="G-ltFNJWFvAJmX5KEzf5-85">
          <mxGeometry width="50" height="50" relative="1" as="geometry">
            <mxPoint x="1211" y="1807" as="sourcePoint" />
            <mxPoint x="1261" y="1757" as="targetPoint" />
          </mxGeometry>
        </mxCell>
        <mxCell id="G-ltFNJWFvAJmX5KEzf5-90" value="AWS Step Functions workflow" style="points=[[0,0],[0.25,0],[0.5,0],[0.75,0],[1,0],[1,0.25],[1,0.5],[1,0.75],[1,1],[0.75,1],[0.5,1],[0.25,1],[0,1],[0,0.75],[0,0.5],[0,0.25]];outlineConnect=0;gradientColor=none;html=1;whiteSpace=wrap;fontSize=12;fontStyle=0;container=1;pointerEvents=0;collapsible=0;recursiveResize=0;shape=mxgraph.aws4.group;grIcon=mxgraph.aws4.group_aws_step_functions_workflow;strokeColor=#CD2264;fillColor=none;verticalAlign=top;align=left;spacingLeft=30;fontColor=#CD2264;dashed=0;" vertex="1" parent="1">
          <mxGeometry x="942.6" y="2086" width="637" height="1967" as="geometry" />
        </mxCell>
        <mxCell id="G-ltFNJWFvAJmX5KEzf5-93" value="AWS Lambda to fetch the PIP config from MongoDB" style="sketch=0;outlineConnect=0;fontColor=#232F3E;gradientColor=none;strokeColor=#ffffff;fillColor=#232F3E;dashed=0;verticalLabelPosition=middle;verticalAlign=bottom;align=center;html=1;whiteSpace=wrap;fontSize=10;fontStyle=1;spacing=3;shape=mxgraph.aws4.productIcon;prIcon=mxgraph.aws4.lambda;" vertex="1" parent="G-ltFNJWFvAJmX5KEzf5-90">
          <mxGeometry x="278.5" y="65.2" width="80" height="154" as="geometry" />
        </mxCell>
        <mxCell id="G-ltFNJWFvAJmX5KEzf5-94" value="" style="dashed=0;outlineConnect=0;html=1;align=center;labelPosition=center;verticalLabelPosition=bottom;verticalAlign=top;shape=mxgraph.webicons.mongodb;gradientColor=#DFDEDE" vertex="1" parent="G-ltFNJWFvAJmX5KEzf5-90">
          <mxGeometry x="16.5" y="91" width="102.4" height="102.4" as="geometry" />
        </mxCell>
        <mxCell id="G-ltFNJWFvAJmX5KEzf5-96" value="" style="endArrow=classic;html=1;rounded=0;" edge="1" parent="G-ltFNJWFvAJmX5KEzf5-90" source="G-ltFNJWFvAJmX5KEzf5-93" target="G-ltFNJWFvAJmX5KEzf5-94">
          <mxGeometry width="50" height="50" relative="1" as="geometry">
            <mxPoint x="149.5" y="190" as="sourcePoint" />
            <mxPoint x="199.5" y="140" as="targetPoint" />
          </mxGeometry>
        </mxCell>
        <mxCell id="G-ltFNJWFvAJmX5KEzf5-97" value="MongoDB Collection&lt;div&gt;&amp;nbsp;For PIP Config&lt;/div&gt;" style="text;html=1;align=center;verticalAlign=middle;resizable=0;points=[];autosize=1;strokeColor=none;fillColor=none;" vertex="1" parent="G-ltFNJWFvAJmX5KEzf5-90">
          <mxGeometry y="210" width="133" height="49" as="geometry" />
        </mxCell>
        <mxCell id="G-ltFNJWFvAJmX5KEzf5-99" value="" style="edgeStyle=orthogonalEdgeStyle;rounded=0;orthogonalLoop=1;jettySize=auto;html=1;" edge="1" parent="G-ltFNJWFvAJmX5KEzf5-90" source="G-ltFNJWFvAJmX5KEzf5-93" target="G-ltFNJWFvAJmX5KEzf5-98">
          <mxGeometry relative="1" as="geometry" />
        </mxCell>
        <mxCell id="G-ltFNJWFvAJmX5KEzf5-101" value="" style="edgeStyle=orthogonalEdgeStyle;rounded=0;orthogonalLoop=1;jettySize=auto;html=1;" edge="1" parent="G-ltFNJWFvAJmX5KEzf5-90" source="G-ltFNJWFvAJmX5KEzf5-98" target="G-ltFNJWFvAJmX5KEzf5-100">
          <mxGeometry relative="1" as="geometry" />
        </mxCell>
        <mxCell id="G-ltFNJWFvAJmX5KEzf5-98" value="AWS Lambda to launch emr cluster&amp;nbsp; or check if it already exisits or not&amp;nbsp;" style="sketch=0;outlineConnect=0;fontColor=#232F3E;gradientColor=none;strokeColor=#ffffff;fillColor=#232F3E;dashed=0;verticalLabelPosition=middle;verticalAlign=bottom;align=center;html=1;whiteSpace=wrap;fontSize=10;fontStyle=1;spacing=3;shape=mxgraph.aws4.productIcon;prIcon=mxgraph.aws4.lambda;" vertex="1" parent="G-ltFNJWFvAJmX5KEzf5-90">
          <mxGeometry x="278.5" y="287" width="80" height="161" as="geometry" />
        </mxCell>
        <mxCell id="G-ltFNJWFvAJmX5KEzf5-103" value="" style="edgeStyle=orthogonalEdgeStyle;rounded=0;orthogonalLoop=1;jettySize=auto;html=1;" edge="1" parent="G-ltFNJWFvAJmX5KEzf5-90" source="G-ltFNJWFvAJmX5KEzf5-100" target="G-ltFNJWFvAJmX5KEzf5-102">
          <mxGeometry relative="1" as="geometry" />
        </mxCell>
        <mxCell id="G-ltFNJWFvAJmX5KEzf5-100" value="AWS Lambda to create arguments for emr spark step submit c" style="sketch=0;outlineConnect=0;fontColor=#232F3E;gradientColor=none;strokeColor=#ffffff;fillColor=#232F3E;dashed=0;verticalLabelPosition=middle;verticalAlign=bottom;align=center;html=1;whiteSpace=wrap;fontSize=10;fontStyle=1;spacing=3;shape=mxgraph.aws4.productIcon;prIcon=mxgraph.aws4.lambda;" vertex="1" parent="G-ltFNJWFvAJmX5KEzf5-90">
          <mxGeometry x="278.5" y="511" width="80" height="147" as="geometry" />
        </mxCell>
        <mxCell id="G-ltFNJWFvAJmX5KEzf5-105" value="" style="edgeStyle=orthogonalEdgeStyle;rounded=0;orthogonalLoop=1;jettySize=auto;html=1;" edge="1" parent="G-ltFNJWFvAJmX5KEzf5-90" source="G-ltFNJWFvAJmX5KEzf5-102" target="G-ltFNJWFvAJmX5KEzf5-104">
          <mxGeometry relative="1" as="geometry" />
        </mxCell>
        <mxCell id="G-ltFNJWFvAJmX5KEzf5-102" value="Amazon EMR to read data from process layer aand execute the hive view and write adata into buisness layer and parquet format" style="sketch=0;outlineConnect=0;fontColor=#232F3E;gradientColor=none;strokeColor=#ffffff;fillColor=#232F3E;dashed=0;verticalLabelPosition=middle;verticalAlign=bottom;align=center;html=1;whiteSpace=wrap;fontSize=10;fontStyle=1;spacing=3;shape=mxgraph.aws4.productIcon;prIcon=mxgraph.aws4.emr;" vertex="1" parent="G-ltFNJWFvAJmX5KEzf5-90">
          <mxGeometry x="278.5" y="735" width="80" height="210" as="geometry" />
        </mxCell>
        <mxCell id="G-ltFNJWFvAJmX5KEzf5-107" value="" style="edgeStyle=orthogonalEdgeStyle;rounded=0;orthogonalLoop=1;jettySize=auto;html=1;" edge="1" parent="G-ltFNJWFvAJmX5KEzf5-90" source="G-ltFNJWFvAJmX5KEzf5-104" target="G-ltFNJWFvAJmX5KEzf5-106">
          <mxGeometry relative="1" as="geometry" />
        </mxCell>
        <mxCell id="G-ltFNJWFvAJmX5KEzf5-104" value="AWS Lambda to create arguments for final step to write data into mongodb for Ui consumption&amp;nbsp;" style="sketch=0;outlineConnect=0;fontColor=#232F3E;gradientColor=none;strokeColor=#ffffff;fillColor=#232F3E;dashed=0;verticalLabelPosition=middle;verticalAlign=bottom;align=center;html=1;whiteSpace=wrap;fontSize=10;fontStyle=1;spacing=3;shape=mxgraph.aws4.productIcon;prIcon=mxgraph.aws4.lambda;" vertex="1" parent="G-ltFNJWFvAJmX5KEzf5-90">
          <mxGeometry x="279.5" y="1022" width="80" height="175" as="geometry" />
        </mxCell>
        <mxCell id="G-ltFNJWFvAJmX5KEzf5-109" value="" style="edgeStyle=orthogonalEdgeStyle;rounded=0;orthogonalLoop=1;jettySize=auto;html=1;" edge="1" parent="G-ltFNJWFvAJmX5KEzf5-90" source="G-ltFNJWFvAJmX5KEzf5-106" target="G-ltFNJWFvAJmX5KEzf5-108">
          <mxGeometry relative="1" as="geometry" />
        </mxCell>
        <mxCell id="G-ltFNJWFvAJmX5KEzf5-106" value="Amazon EMR to read data from s3 and write data into mongoDB" style="sketch=0;outlineConnect=0;fontColor=#232F3E;gradientColor=none;strokeColor=#ffffff;fillColor=#232F3E;dashed=0;verticalLabelPosition=middle;verticalAlign=bottom;align=center;html=1;whiteSpace=wrap;fontSize=10;fontStyle=1;spacing=3;shape=mxgraph.aws4.productIcon;prIcon=mxgraph.aws4.emr;" vertex="1" parent="G-ltFNJWFvAJmX5KEzf5-90">
          <mxGeometry x="278.5" y="1295" width="80" height="161" as="geometry" />
        </mxCell>
        <mxCell id="G-ltFNJWFvAJmX5KEzf5-108" value="AWS Lambda to send sqs to downstream to refresh data into downstream collections" style="sketch=0;outlineConnect=0;fontColor=#232F3E;gradientColor=none;strokeColor=#ffffff;fillColor=#232F3E;dashed=0;verticalLabelPosition=middle;verticalAlign=bottom;align=center;html=1;whiteSpace=wrap;fontSize=10;fontStyle=1;spacing=3;shape=mxgraph.aws4.productIcon;prIcon=mxgraph.aws4.lambda;" vertex="1" parent="G-ltFNJWFvAJmX5KEzf5-90">
          <mxGeometry x="279.5" y="1512" width="80" height="175" as="geometry" />
        </mxCell>
        <mxCell id="G-ltFNJWFvAJmX5KEzf5-110" value="Amazon SQS" style="sketch=0;outlineConnect=0;fontColor=#232F3E;gradientColor=none;strokeColor=#ffffff;fillColor=#232F3E;dashed=0;verticalLabelPosition=middle;verticalAlign=bottom;align=center;html=1;whiteSpace=wrap;fontSize=10;fontStyle=1;spacing=3;shape=mxgraph.aws4.productIcon;prIcon=mxgraph.aws4.sqs;" vertex="1" parent="G-ltFNJWFvAJmX5KEzf5-90">
          <mxGeometry x="16.5" y="1529.5" width="80" height="140" as="geometry" />
        </mxCell>
        <mxCell id="G-ltFNJWFvAJmX5KEzf5-111" value="" style="endArrow=classic;html=1;rounded=0;" edge="1" parent="G-ltFNJWFvAJmX5KEzf5-90" source="G-ltFNJWFvAJmX5KEzf5-108" target="G-ltFNJWFvAJmX5KEzf5-110">
          <mxGeometry width="50" height="50" relative="1" as="geometry">
            <mxPoint x="3.5" y="1477" as="sourcePoint" />
            <mxPoint x="-46.5" y="1527" as="targetPoint" />
          </mxGeometry>
        </mxCell>
        <mxCell id="G-ltFNJWFvAJmX5KEzf5-112" value="AWS Lambda to notify user about sucess and fail also update the config" style="sketch=0;outlineConnect=0;fontColor=#232F3E;gradientColor=none;strokeColor=#ffffff;fillColor=#232F3E;dashed=0;verticalLabelPosition=middle;verticalAlign=bottom;align=center;html=1;whiteSpace=wrap;fontSize=10;fontStyle=1;spacing=3;shape=mxgraph.aws4.productIcon;prIcon=mxgraph.aws4.lambda;" vertex="1" parent="G-ltFNJWFvAJmX5KEzf5-90">
          <mxGeometry x="278.5" y="1778" width="85.5" height="168" as="geometry" />
        </mxCell>
        <mxCell id="G-ltFNJWFvAJmX5KEzf5-116" value="" style="endArrow=classic;html=1;rounded=0;" edge="1" parent="G-ltFNJWFvAJmX5KEzf5-90" source="G-ltFNJWFvAJmX5KEzf5-108">
          <mxGeometry width="50" height="50" relative="1" as="geometry">
            <mxPoint x="247.5" y="1793" as="sourcePoint" />
            <mxPoint x="319" y="1778" as="targetPoint" />
          </mxGeometry>
        </mxCell>
      </root>
    </mxGraphModel>
  </diagram>
  <diagram id="Ig1Lr2szz3sBikAnbiub" name="Page-2">
    <mxGraphModel dx="1104" dy="550" grid="1" gridSize="7" guides="1" tooltips="1" connect="1" arrows="1" fold="1" page="1" pageScale="1" pageWidth="850" pageHeight="1500" math="0" shadow="0">
      <root>
        <mxCell id="0" />
        <mxCell id="1" parent="0" />
      </root>
    </mxGraphModel>
  </diagram>
</mxfile>
